<?xml version="1.0" encoding="utf-8"?>
<!DOCTYPE svg PUBLIC "-//W3C//DTD SVG 1.0//EN" "http://www.w3.org/TR/2001/REC-SVG-20010904/DTD/svg10.dtd">
<svg version="1.0" xmlns="http://www.w3.org/2000/svg" width="277px" height="277px" viewBox="0 0 277 277" preserveAspectRatio="xMidYMid meet">
 <g fill="#fffffe">
  <path d="M0 138.50 l0 -138.50 138.50 0 138.50 0 0 138.50 0 138.50 -138.50 0 -138.50 0 0 -138.50z m135.25 101.03 c1.70 -0.24 4.25 -0.68 5.65 -0.95 1.41 -0.30 2.95 -0.54 3.41 -0.54 0.49 0 1.03 -0.16 1.19 -0.38 0.19 -0.22 0.84 -0.49 1.43 -0.57 0.62 -0.11 1.51 -0.38 2 -0.57 0.49 -0.22 1.24 -0.38 1.62 -0.38 0.41 0 0.95 -0.16 1.16 -0.38 0.24 -0.22 1.38 -0.76 2.54 -1.22 1.14 -0.46 2.92 -1.24 3.92 -1.73 1 -0.51 2.25 -1.08 2.76 -1.27 0.51 -0.22 1.35 -0.68 1.87 -1 0.51 -0.35 1.14 -0.62 1.38 -0.62 0.27 0 0.62 -0.16 0.78 -0.38 0.19 -0.22 1.73 -1.33 3.44 -2.46 17.75 -11.82 29.78 -29.03 34.33 -49.10 2.54 -11.14 2.54 -21.61 -0.03 -33.27 -0.87 -3.95 -2.54 -9.47 -2.89 -9.47 -0.14 0 -0.65 0.24 -1.11 0.51 -0.46 0.30 -2.35 1.22 -4.22 2.06 -1.87 0.87 -3.41 1.57 -3.44 1.60 -0.03 0.03 0.11 0.65 0.35 1.38 2.87 9.47 3.57 22.13 1.84 32.60 -1.14 6.76 -3.22 13.04 -6.49 19.48 -10.01 19.77 -30.46 33.95 -52.69 36.55 -1.70 0.19 -5.17 0.27 -9.60 0.16 -5.79 -0.11 -7.57 -0.24 -10.85 -0.81 -7.11 -1.27 -13.25 -3.35 -19.88 -6.79 -6.47 -3.33 -11.31 -6.95 -16.96 -12.66 l-3.68 -3.73 -3.27 3.44 c-1.81 1.87 -3.27 3.54 -3.27 3.71 0 0.16 1.87 2.14 4.17 4.38 13.15 12.90 29.21 20.59 47.56 22.70 4.11 0.49 12.58 0.35 16.99 -0.27z m-55.05 -54.78 c24.54 -24.99 24.97 -25.43 25.94 -25.43 0.84 0 1.92 1.03 14.96 14.17 l14.07 14.20 6.76 -6.82 c3.71 -3.76 9.47 -9.58 12.80 -12.96 5.73 -5.84 6.11 -6.17 7.06 -6.17 0.95 0 1.24 0.24 4.82 3.95 2.11 2.19 3.87 3.92 3.92 3.87 0.19 -0.22 5.06 -27.89 4.92 -28.02 -0.11 -0.11 -6.49 1 -17.61 3.03 -1.92 0.35 -5.14 0.92 -7.11 1.24 l-3.60 0.62 3.41 3.41 c2.81 2.81 3.38 3.52 3.38 4.19 0 0.70 -1.22 2.06 -8.82 9.82 -8.28 8.41 -8.87 8.98 -9.77 8.98 -0.89 0 -1.79 -0.84 -15.09 -14.17 l-14.15 -14.17 -5.11 5.17 c-38.82 39.41 -37.17 37.79 -38.11 37.79 -0.84 0 -0.92 -0.08 -1.68 -2.08 -5.49 -14.31 -5.68 -32.19 -0.46 -47.10 4.92 -14.12 14.12 -25.97 26.59 -34.25 2.92 -1.95 8.66 -5.03 9.33 -5.03 0.24 0 0.89 -0.30 1.43 -0.68 0.54 -0.38 1.19 -0.68 1.43 -0.68 0.27 0 0.57 -0.11 0.73 -0.22 0.14 -0.14 0.97 -0.49 1.87 -0.78 6.57 -2.25 12.66 -3.41 22.45 -4.27 7.66 -0.68 18.80 -1.95 23.53 -2.73 2.38 -0.38 5.19 -0.76 6.22 -0.84 1.05 -0.05 2.27 -0.30 2.71 -0.49 0.46 -0.19 1.73 -0.49 2.84 -0.68 1.11 -0.19 2.41 -0.43 2.84 -0.57 0.46 -0.14 1.79 -0.41 2.98 -0.62 4.82 -0.87 22.34 -5.60 25.16 -6.79 0.46 -0.19 1.35 -0.51 2.03 -0.68 0.68 -0.19 1.60 -0.49 2.03 -0.68 0.46 -0.19 1.79 -0.68 2.98 -1.08 1.19 -0.41 2.54 -0.89 2.98 -1.08 0.46 -0.22 2.16 -0.92 3.79 -1.57 5.60 -2.30 12.82 -5.79 16.72 -8.12 1.57 -0.95 2.41 -1.27 3.19 -1.27 1 0 1.05 0.05 1.05 0.84 0 1.22 -2.22 6.30 -4.17 9.55 -7.14 11.90 -20.15 21.21 -39.95 28.59 -10.33 3.84 -23.67 7.41 -35.68 9.55 -6.57 1.16 -6.41 1.11 -3.11 1.19 3.81 0.11 14.82 -0.38 19.88 -0.92 6.03 -0.62 12.98 -1.65 17.31 -2.57 2.16 -0.43 4.41 -0.89 5 -0.95 0.60 -0.08 1.51 -0.32 2.03 -0.51 2.08 -0.81 8.93 -2.57 9.98 -2.57 1.08 0 1.11 0.03 1.11 0.89 0 1.03 -1.95 3.84 -4.90 7.06 -9.22 10.06 -27.19 17.15 -47.77 18.85 -2.27 0.19 -4.06 0.43 -3.92 0.54 0.11 0.11 1.70 0.38 3.57 0.62 12.01 1.49 21.42 1.22 31.54 -0.89 11.14 -2.33 19.86 -7.49 26.89 -15.93 4.71 -5.63 8.49 -12.36 10.85 -19.31 l0.87 -2.62 2.79 -2.33 c9.28 -7.68 15.80 -18.53 18.83 -31.24 1.30 -5.46 1.60 -7.90 1.76 -14.07 0.16 -6.03 0.16 -6.06 -0.38 -5.68 -0.30 0.22 -1.79 1.41 -3.27 2.62 -24.97 20.21 -60.54 32 -108.66 36.06 -13.71 1.16 -20.91 2.68 -30 6.41 -14.58 5.92 -27.48 16.39 -36.17 29.30 -6.65 9.90 -11.01 21.29 -12.82 33.38 -2.60 17.50 1.65 36.22 11.69 51.59 l1.51 2.30 6.65 -6.76 c3.65 -3.73 9.58 -9.77 13.15 -13.42z"/>
 </g>
 <g fill="#132146">
  <path d="M117.45 240.62 c-18.42 -2.11 -34.63 -9.87 -47.69 -22.86 -2.33 -2.30 -4.36 -4.44 -4.52 -4.76 -0.27 -0.49 0.14 -1 3.65 -4.68 2.52 -2.62 4.11 -4.08 4.38 -4.03 0.27 0.05 1.43 1.16 2.60 2.49 9.66 10.87 23.67 18.56 38.55 21.18 4.79 0.84 14.42 1.16 18.83 0.65 22.24 -2.60 42.66 -16.77 52.69 -36.55 4.17 -8.17 6.30 -15.69 7.22 -25.29 0.73 -7.52 -0.41 -18.23 -2.73 -25.59 -0.30 -0.95 -0.54 -1.89 -0.54 -2.08 0 -0.19 1.14 -0.84 2.52 -1.46 1.35 -0.62 3.62 -1.73 5 -2.43 1.38 -0.70 2.68 -1.30 2.89 -1.30 0.78 0 3.35 9.41 4.33 15.91 2.43 16.34 -0.38 33.33 -7.95 47.80 -6.44 12.31 -15.55 22.37 -27.46 30.30 -1.70 1.14 -3.25 2.25 -3.44 2.46 -0.16 0.22 -0.51 0.38 -0.78 0.38 -0.24 0 -0.87 0.27 -1.38 0.62 -0.51 0.32 -1.35 0.78 -1.87 1 -0.51 0.19 -1.76 0.76 -2.76 1.27 -1 0.49 -2.79 1.27 -3.92 1.73 -1.16 0.46 -2.30 1 -2.54 1.22 -0.22 0.22 -0.76 0.38 -1.16 0.38 -0.38 0 -1.14 0.16 -1.62 0.38 -0.49 0.19 -1.38 0.46 -2 0.57 -0.60 0.08 -1.24 0.35 -1.43 0.57 -0.16 0.22 -0.70 0.38 -1.19 0.38 -0.46 0 -2 0.24 -3.41 0.54 -6.98 1.43 -17.58 1.97 -24.26 1.22z"/>
  <path d="M59.97 206.18 c-0.81 -0.97 -3.14 -4.63 -4.76 -7.52 -4.22 -7.55 -7.03 -15.69 -8.55 -24.56 -3.68 -21.67 2.35 -44.74 16.28 -62.38 2.30 -2.92 7.38 -8.14 10.36 -10.69 12.04 -10.20 26.19 -16.58 41.66 -18.77 2.16 -0.32 6.84 -0.81 10.41 -1.11 24.54 -2.06 44.47 -5.84 62.70 -11.90 19.34 -6.44 34.44 -14.53 47.61 -25.48 1.57 -1.33 3.06 -2.38 3.30 -2.38 0.43 0 0.46 0.57 0.32 7.25 -0.14 7.44 -0.38 9.36 -1.76 15.20 -3.03 12.71 -9.55 23.56 -18.83 31.24 l-2.79 2.33 -0.87 2.62 c-2.35 6.95 -6.14 13.69 -10.85 19.31 -9.87 11.85 -22.70 17.15 -42.74 17.72 -7.68 0.22 -12.90 -0.19 -22.80 -1.73 -3.76 -0.57 -4.46 -0.76 -4.22 -1.05 0.22 -0.27 0.97 -0.38 2.52 -0.38 2.79 0 12.77 -0.92 15.99 -1.49 20.59 -3.57 34.19 -10.58 42.66 -21.91 0.87 -1.19 1.49 -2.19 1.33 -2.25 -0.27 -0.08 -7.68 1.92 -9.22 2.52 -0.51 0.19 -1.43 0.43 -2.03 0.51 -0.60 0.05 -2.84 0.51 -5 0.95 -11.60 2.46 -27.27 3.76 -40.58 3.44 -7.03 -0.19 -9.01 -0.35 -8.79 -0.70 0.05 -0.11 0.95 -0.27 1.95 -0.38 13.93 -1.38 33.27 -5.98 47.39 -11.23 19.75 -7.38 32.92 -16.80 39.95 -28.57 1.68 -2.84 4.30 -8.60 3.92 -8.74 -0.11 -0.03 -1.19 0.49 -2.35 1.19 -3.92 2.35 -11.14 5.84 -16.74 8.14 -1.62 0.65 -3.33 1.35 -3.79 1.57 -0.43 0.19 -1.79 0.68 -2.98 1.08 -1.19 0.41 -2.52 0.89 -2.98 1.08 -0.43 0.19 -1.35 0.49 -2.03 0.68 -0.68 0.16 -1.57 0.49 -2.03 0.68 -2.81 1.19 -20.34 5.92 -25.16 6.79 -1.19 0.22 -2.52 0.49 -2.98 0.62 -0.43 0.14 -1.73 0.38 -2.84 0.57 -1.11 0.19 -2.38 0.49 -2.84 0.68 -0.43 0.19 -1.65 0.43 -2.71 0.49 -1.03 0.08 -3.84 0.46 -6.22 0.84 -4.73 0.78 -15.88 2.06 -23.53 2.73 -9.79 0.87 -15.88 2.03 -22.45 4.27 -0.89 0.30 -1.73 0.65 -1.87 0.78 -0.16 0.11 -0.46 0.22 -0.73 0.22 -0.24 0 -0.89 0.30 -1.43 0.68 -0.54 0.38 -1.19 0.68 -1.43 0.68 -0.68 0 -6.41 3.08 -9.33 5.03 -12.47 8.28 -21.67 20.13 -26.59 34.25 -4.92 14.09 -4.98 30.16 -0.14 43.90 0.49 1.35 1.03 2.71 1.19 3.06 0.35 0.65 -0.84 1.81 37.74 -37.33 3.06 -3.11 5.65 -5.63 5.76 -5.63 0.14 0 6.76 6.55 14.74 14.55 l14.50 14.53 8.90 -9.06 8.90 -9.06 -4.08 -4.03 c-2.25 -2.19 -4.06 -4.06 -4 -4.08 0.05 -0.05 2.95 -0.60 6.44 -1.19 3.49 -0.62 9.71 -1.70 13.80 -2.46 10.47 -1.89 11.09 -2 11.28 -1.81 0.16 0.16 -5.25 31.05 -5.49 31.27 -0.05 0.08 -2.16 -2 -4.71 -4.60 l-4.57 -4.71 -6.17 6.22 c-3.38 3.44 -9.36 9.47 -13.28 13.47 l-7.14 7.22 -14.53 -14.66 -14.53 -14.66 -9.31 9.47 c-11.36 11.52 -20.07 20.40 -29.40 29.92 -6.44 6.57 -7.09 7.17 -7.47 6.76z"/>
 </g>
</svg>